<mxfile host="65bd71144e">
    <diagram id="R2lEEEUBdFMjLlhIrx00" name="Page-1">
        <mxGraphModel dx="2927" dy="2694" grid="1" gridSize="10" guides="1" tooltips="1" connect="1" arrows="1" fold="1" page="1" pageScale="1" pageWidth="850" pageHeight="1100" math="0" shadow="0" extFonts="Permanent Marker^https://fonts.googleapis.com/css?family=Permanent+Marker">
            <root>
                <mxCell id="0"/>
                <mxCell id="1" parent="0"/>
                <mxCell id="87" value="" style="rounded=0;whiteSpace=wrap;html=1;labelBackgroundColor=none;fontSize=20;fillColor=#f5f5f5;fontColor=#333333;strokeColor=#666666;" vertex="1" parent="1">
                    <mxGeometry x="-130" y="-310" width="1240" height="1360" as="geometry"/>
                </mxCell>
                <mxCell id="46" value="" style="ellipse;whiteSpace=wrap;html=1;direction=south;fillColor=#f8cecc;strokeColor=#b85450;strokeWidth=2;fontSize=20;" parent="1" vertex="1">
                    <mxGeometry x="-60" y="-40" width="600" height="880" as="geometry"/>
                </mxCell>
                <mxCell id="72" style="edgeStyle=none;html=1;exitX=1;exitY=0.5;exitDx=0;exitDy=0;entryX=0;entryY=0.5;entryDx=0;entryDy=0;strokeWidth=2;endArrow=block;endFill=1;fontSize=20;" edge="1" parent="1" source="48" target="59">
                    <mxGeometry relative="1" as="geometry"/>
                </mxCell>
                <mxCell id="80" value="Maps To" style="edgeLabel;html=1;align=center;verticalAlign=middle;resizable=0;points=[];fontSize=20;labelBackgroundColor=none;" vertex="1" connectable="0" parent="72">
                    <mxGeometry x="0.2038" y="2" relative="1" as="geometry">
                        <mxPoint x="44" y="-54" as="offset"/>
                    </mxGeometry>
                </mxCell>
                <mxCell id="73" style="edgeStyle=none;html=1;entryX=0;entryY=0.5;entryDx=0;entryDy=0;endArrow=block;endFill=1;strokeWidth=2;exitX=1;exitY=0.5;exitDx=0;exitDy=0;" edge="1" parent="1" source="50" target="61">
                    <mxGeometry relative="1" as="geometry">
                        <mxPoint x="210" y="200" as="sourcePoint"/>
                    </mxGeometry>
                </mxCell>
                <mxCell id="82" value="Maps To" style="edgeLabel;html=1;align=center;verticalAlign=middle;resizable=0;points=[];fontSize=20;labelBackgroundColor=none;" vertex="1" connectable="0" parent="73">
                    <mxGeometry x="0.3117" y="1" relative="1" as="geometry">
                        <mxPoint x="70" y="-43" as="offset"/>
                    </mxGeometry>
                </mxCell>
                <mxCell id="47" value="" style="curved=1;endArrow=none;html=1;entryX=0;entryY=1;entryDx=0;entryDy=0;exitX=0;exitY=0;exitDx=0;exitDy=0;endFill=0;dashed=1;strokeWidth=2;fontSize=20;" parent="1" source="46" target="46" edge="1">
                    <mxGeometry width="50" height="50" relative="1" as="geometry">
                        <mxPoint x="280" y="460" as="sourcePoint"/>
                        <mxPoint x="330" y="410" as="targetPoint"/>
                        <Array as="points">
                            <mxPoint x="340" y="110"/>
                            <mxPoint x="200" y="160"/>
                            <mxPoint x="70" y="150"/>
                        </Array>
                    </mxGeometry>
                </mxCell>
                <mxCell id="48" value="Product Subdomain" style="text;html=1;strokeColor=none;fillColor=none;align=center;verticalAlign=middle;whiteSpace=wrap;rounded=0;fontSize=20;" parent="1" vertex="1">
                    <mxGeometry x="177.5" y="30" width="125" height="30" as="geometry"/>
                </mxCell>
                <mxCell id="49" value="" style="curved=1;endArrow=none;html=1;entryX=0.5;entryY=1;entryDx=0;entryDy=0;endFill=0;dashed=1;strokeWidth=2;fontSize=20;" parent="1" target="46" edge="1">
                    <mxGeometry width="50" height="50" relative="1" as="geometry">
                        <mxPoint x="210" y="150" as="sourcePoint"/>
                        <mxPoint x="37.86796564403585" y="98.8730162779193" as="targetPoint"/>
                        <Array as="points">
                            <mxPoint x="220" y="170"/>
                            <mxPoint x="200" y="310"/>
                            <mxPoint x="90" y="420"/>
                        </Array>
                    </mxGeometry>
                </mxCell>
                <mxCell id="50" value="Customer Subdomain" style="text;html=1;strokeColor=none;fillColor=none;align=center;verticalAlign=middle;whiteSpace=wrap;rounded=0;fontSize=20;" parent="1" vertex="1">
                    <mxGeometry x="20" y="230" width="125" height="30" as="geometry"/>
                </mxCell>
                <mxCell id="51" value="" style="curved=1;endArrow=none;html=1;entryX=1;entryY=0;entryDx=0;entryDy=0;endFill=0;dashed=1;strokeWidth=2;fontSize=20;" parent="1" target="46" edge="1">
                    <mxGeometry width="50" height="50" relative="1" as="geometry">
                        <mxPoint x="290" y="390" as="sourcePoint"/>
                        <mxPoint x="-49.999999999998636" y="410" as="targetPoint"/>
                        <Array as="points">
                            <mxPoint x="230" y="480"/>
                            <mxPoint x="210" y="540"/>
                            <mxPoint x="210" y="590"/>
                            <mxPoint x="240" y="650"/>
                            <mxPoint x="340" y="690"/>
                        </Array>
                    </mxGeometry>
                </mxCell>
                <mxCell id="52" value="" style="curved=1;endArrow=none;html=1;entryX=0.5;entryY=0;entryDx=0;entryDy=0;endFill=0;dashed=1;strokeWidth=2;fontSize=20;" parent="1" target="46" edge="1">
                    <mxGeometry width="50" height="50" relative="1" as="geometry">
                        <mxPoint x="180" y="330" as="sourcePoint"/>
                        <mxPoint x="462.13203435596415" y="721.1269837220807" as="targetPoint"/>
                        <Array as="points">
                            <mxPoint x="300" y="440"/>
                        </Array>
                    </mxGeometry>
                </mxCell>
                <mxCell id="74" style="edgeStyle=none;html=1;exitX=1;exitY=0.5;exitDx=0;exitDy=0;entryX=0;entryY=0.5;entryDx=0;entryDy=0;endArrow=block;endFill=1;strokeWidth=2;" edge="1" parent="1" source="53" target="64">
                    <mxGeometry relative="1" as="geometry"/>
                </mxCell>
                <mxCell id="83" value="Maps To" style="edgeLabel;html=1;align=center;verticalAlign=middle;resizable=0;points=[];fontSize=20;labelBackgroundColor=none;" vertex="1" connectable="0" parent="74">
                    <mxGeometry x="-0.1896" y="-1" relative="1" as="geometry">
                        <mxPoint x="64" y="-20" as="offset"/>
                    </mxGeometry>
                </mxCell>
                <mxCell id="53" value="Delivery Squad Subdomain" style="text;html=1;strokeColor=none;fillColor=none;align=center;verticalAlign=middle;whiteSpace=wrap;rounded=0;fontSize=20;" parent="1" vertex="1">
                    <mxGeometry x="281.25" y="270" width="167.5" height="30" as="geometry"/>
                </mxCell>
                <mxCell id="55" value="" style="curved=1;endArrow=none;html=1;entryX=1;entryY=1;entryDx=0;entryDy=0;endFill=0;dashed=1;strokeWidth=2;fontSize=20;" parent="1" target="46" edge="1">
                    <mxGeometry width="50" height="50" relative="1" as="geometry">
                        <mxPoint x="210" y="600" as="sourcePoint"/>
                        <mxPoint x="-59.999999999998636" y="820" as="targetPoint"/>
                        <Array as="points">
                            <mxPoint x="220" y="590"/>
                            <mxPoint x="110" y="680"/>
                        </Array>
                    </mxGeometry>
                </mxCell>
                <mxCell id="78" style="edgeStyle=none;html=1;exitX=0.904;exitY=1.2;exitDx=0;exitDy=0;entryX=0;entryY=0.5;entryDx=0;entryDy=0;endArrow=block;endFill=1;strokeWidth=2;exitPerimeter=0;" edge="1" parent="1" source="56" target="68">
                    <mxGeometry relative="1" as="geometry"/>
                </mxCell>
                <mxCell id="85" value="Maps To" style="edgeLabel;html=1;align=center;verticalAlign=middle;resizable=0;points=[];fontSize=20;labelBackgroundColor=none;" vertex="1" connectable="0" parent="78">
                    <mxGeometry x="-0.0118" y="1" relative="1" as="geometry">
                        <mxPoint x="24" y="-21" as="offset"/>
                    </mxGeometry>
                </mxCell>
                <mxCell id="56" value="Invoice &lt;br&gt;Subdomain" style="text;html=1;strokeColor=none;fillColor=none;align=center;verticalAlign=middle;whiteSpace=wrap;rounded=0;fontSize=20;" parent="1" vertex="1">
                    <mxGeometry x="290" y="550" width="185" height="30" as="geometry"/>
                </mxCell>
                <mxCell id="77" style="edgeStyle=none;html=1;exitX=1;exitY=0.25;exitDx=0;exitDy=0;entryX=0;entryY=0.5;entryDx=0;entryDy=0;endArrow=block;endFill=1;strokeWidth=2;" edge="1" parent="1" source="57" target="66">
                    <mxGeometry relative="1" as="geometry"/>
                </mxCell>
                <mxCell id="84" value="Maps To" style="edgeLabel;html=1;align=center;verticalAlign=middle;resizable=0;points=[];fontSize=20;labelBackgroundColor=none;" vertex="1" connectable="0" parent="77">
                    <mxGeometry x="0.471" y="4" relative="1" as="geometry">
                        <mxPoint x="14" y="-14" as="offset"/>
                    </mxGeometry>
                </mxCell>
                <mxCell id="57" value="Delivery Subdomain" style="text;html=1;strokeColor=none;fillColor=none;align=center;verticalAlign=middle;whiteSpace=wrap;rounded=0;fontSize=20;" parent="1" vertex="1">
                    <mxGeometry x="20" y="484.25" width="125" height="30" as="geometry"/>
                </mxCell>
                <mxCell id="79" style="edgeStyle=none;html=1;exitX=1;exitY=0.5;exitDx=0;exitDy=0;entryX=0;entryY=0.5;entryDx=0;entryDy=0;endArrow=block;endFill=1;strokeWidth=2;" edge="1" parent="1" source="58" target="70">
                    <mxGeometry relative="1" as="geometry"/>
                </mxCell>
                <mxCell id="86" value="Maps To" style="edgeLabel;html=1;align=center;verticalAlign=middle;resizable=0;points=[];fontSize=20;labelBackgroundColor=none;" vertex="1" connectable="0" parent="79">
                    <mxGeometry x="0.3264" y="1" relative="1" as="geometry">
                        <mxPoint x="10" y="-23" as="offset"/>
                    </mxGeometry>
                </mxCell>
                <mxCell id="58" value="Payment Subdomain" style="text;html=1;strokeColor=none;fillColor=none;align=center;verticalAlign=middle;whiteSpace=wrap;rounded=0;fontSize=20;" parent="1" vertex="1">
                    <mxGeometry x="177.5" y="730" width="125" height="30" as="geometry"/>
                </mxCell>
                <mxCell id="59" value="Product Service" style="rounded=0;whiteSpace=wrap;html=1;fontSize=20;strokeWidth=2;fillColor=#f8cecc;strokeColor=#b85450;labelPosition=center;verticalLabelPosition=top;align=center;verticalAlign=bottom;" parent="1" vertex="1">
                    <mxGeometry x="840" y="-240" width="180" height="140" as="geometry"/>
                </mxCell>
                <mxCell id="60" value="Product Domain Model" style="rounded=0;whiteSpace=wrap;html=1;fontSize=20;strokeWidth=2;fillColor=#f5f5f5;fontColor=#333333;strokeColor=#666666;" parent="1" vertex="1">
                    <mxGeometry x="870" y="-212.5" width="120" height="85" as="geometry"/>
                </mxCell>
                <mxCell id="61" value="Customer Service" style="rounded=0;whiteSpace=wrap;html=1;fontSize=20;strokeWidth=2;fillColor=#f8cecc;strokeColor=#b85450;labelPosition=center;verticalLabelPosition=top;align=center;verticalAlign=bottom;" parent="1" vertex="1">
                    <mxGeometry x="840" y="-25" width="180" height="140" as="geometry"/>
                </mxCell>
                <mxCell id="62" value="Customer Domain Model" style="rounded=0;whiteSpace=wrap;html=1;fontSize=20;strokeWidth=2;fillColor=#f5f5f5;fontColor=#333333;strokeColor=#666666;" parent="1" vertex="1">
                    <mxGeometry x="870" y="2.5" width="120" height="85" as="geometry"/>
                </mxCell>
                <mxCell id="64" value="Delivery Squad Service" style="rounded=0;whiteSpace=wrap;html=1;fontSize=20;strokeWidth=2;fillColor=#f8cecc;strokeColor=#b85450;labelPosition=center;verticalLabelPosition=top;align=center;verticalAlign=bottom;" parent="1" vertex="1">
                    <mxGeometry x="840" y="200" width="180" height="140" as="geometry"/>
                </mxCell>
                <mxCell id="65" value="Delivery Squad Domain Model" style="rounded=0;whiteSpace=wrap;html=1;fontSize=20;strokeWidth=2;fillColor=#f5f5f5;fontColor=#333333;strokeColor=#666666;" parent="1" vertex="1">
                    <mxGeometry x="871" y="223" width="120" height="92.5" as="geometry"/>
                </mxCell>
                <mxCell id="66" value="Delivery Service" style="rounded=0;whiteSpace=wrap;html=1;fontSize=20;strokeWidth=2;fillColor=#f8cecc;strokeColor=#b85450;labelPosition=center;verticalLabelPosition=top;align=center;verticalAlign=bottom;" vertex="1" parent="1">
                    <mxGeometry x="840" y="430" width="180" height="140" as="geometry"/>
                </mxCell>
                <mxCell id="67" value="Delivery Domain Model" style="rounded=0;whiteSpace=wrap;html=1;fontSize=20;strokeWidth=2;fillColor=#f5f5f5;fontColor=#333333;strokeColor=#666666;" vertex="1" parent="1">
                    <mxGeometry x="871" y="453" width="120" height="92.5" as="geometry"/>
                </mxCell>
                <mxCell id="68" value="Invoice Service" style="rounded=0;whiteSpace=wrap;html=1;fontSize=20;strokeWidth=2;fillColor=#f8cecc;strokeColor=#b85450;labelPosition=center;verticalLabelPosition=top;align=center;verticalAlign=bottom;" vertex="1" parent="1">
                    <mxGeometry x="841" y="650" width="180" height="140" as="geometry"/>
                </mxCell>
                <mxCell id="69" value="Invoice Domain Model" style="rounded=0;whiteSpace=wrap;html=1;fontSize=20;strokeWidth=2;fillColor=#f5f5f5;fontColor=#333333;strokeColor=#666666;" vertex="1" parent="1">
                    <mxGeometry x="872" y="673" width="120" height="92.5" as="geometry"/>
                </mxCell>
                <mxCell id="70" value="Payment Service" style="rounded=0;whiteSpace=wrap;html=1;fontSize=20;strokeWidth=2;fillColor=#f8cecc;strokeColor=#b85450;labelPosition=center;verticalLabelPosition=top;align=center;verticalAlign=bottom;" vertex="1" parent="1">
                    <mxGeometry x="842" y="870" width="180" height="140" as="geometry"/>
                </mxCell>
                <mxCell id="71" value="Payment Domain Model" style="rounded=0;whiteSpace=wrap;html=1;fontSize=20;strokeWidth=2;fillColor=#f5f5f5;fontColor=#333333;strokeColor=#666666;" vertex="1" parent="1">
                    <mxGeometry x="873" y="893" width="120" height="92.5" as="geometry"/>
                </mxCell>
            </root>
        </mxGraphModel>
    </diagram>
</mxfile>